# xmcd
#
# Track frame offsets: 
#        150
#        30019
#        42507
#        62083
#        104608
#        122890
#        143534
#        158947
#        170741
#        191685
#        202804
#        225566
#        250224
#        267794
#
# Disc length: 3900 seconds
#
# Revision: 1
# Processed by: cddbd v1.5.2PL0 Copyright (c) Steve Scherf et al.
# Submitted via: ExactAudioCopyFreeDBPlugin 1.0
#
DISCID=bd0f3a0e
DTITLE=Jimi Hendrix - The Many Faces Of Jimi Hendrix  CD 1, 2017
DYEAR=2017
DGENRE=Blues Rock
TTITLE0=Bruce Cameron feat. Billy Cox and Buddy Miles - Midnight Daydrea
TTITLE0=m
TTITLE1=Curtis Nights feat. Jimi Hendrix - How Would You Feel
TTITLE2=Cork feat. Noel Redding - Genuine
TTITLE3=Buddy Miles - Compassion For The Blues
TTITLE4=Little Richard feat. Jimi Hendrix - I Don't Know What You've G
TTITLE4=ot But It's Got Me
TTITLE5=Bruce Cameron feat. Mitch Michell - Raining The Blues
TTITLE6=Betty Davis - Your Mama Wants Ya Back
TTITLE7=Curtis Nights and The Squires feat. Jimi Hendrix - Knock Yoursel
TTITLE7=f Out
TTITLE8=Cork ft. Noel Redding - Waiting
TTITLE9=Curtis Nights and The Squires feat. Jimi Hendrix - Hornet's Nest
TTITLE10=Buddy Miles - Tobacco Road
TTITLE11=Bruce Cameron feat. Billy Cox and Buddy Miles - Born To Lose
TTITLE12=Betty Davis - Shoo-B-Doop And Cop Him
TTITLE13=Cork feat. Noel Redding - Sin City
EXTD=
EXTT0=
EXTT1=
EXTT2=
EXTT3=
EXTT4=
EXTT5=
EXTT6=
EXTT7=
EXTT8=
EXTT9=
EXTT10=
EXTT11=
EXTT12=
EXTT13=
PLAYORDER=
